<svg width="50" height="50" viewBox="0 0 50 50" fill="none" xmlns="http://www.w3.org/2000/svg">
<path d="M25 49.4154C10.9968 40.8703 1.36575 25.302 0.512761 7.30445C15.6355 -1.76815 34.3645 -1.76815 49.4872 7.30444C48.6343 25.302 39.0032 40.8703 25 49.4154Z" fill="url(#paint0_linear_547_152)" stroke="white"/>
<path fill-rule="evenodd" clip-rule="evenodd" d="M17.2055 11C15.6833 11 14.5578 12.2542 14.6089 13.6131C14.6567 14.9207 14.5944 16.6122 14.1422 17.992C13.6867 19.3749 12.92 20.2515 11.6667 20.3645V21.6355C12.92 21.7474 13.6878 22.624 14.1411 24.008C14.5944 25.3878 14.6567 27.0793 14.6078 28.3858C14.5578 29.7458 15.6833 31 17.2055 31H32.7967C34.3189 31 35.4444 29.7458 35.3933 28.3858C35.3455 27.0793 35.4078 25.3878 35.86 24.008C36.3144 22.624 37.08 21.7485 38.3333 21.6355V20.3645C37.08 20.2515 36.3144 19.3749 35.86 17.992C35.4078 16.6112 35.3455 14.9197 35.3933 13.6131C35.4444 12.2532 34.3178 11 32.7967 11H17.2055ZM29.7444 23.3113C29.7444 25.1838 28.2611 26.3188 25.8 26.3188H21.61C21.4901 26.3188 21.375 26.2739 21.2902 26.1941C21.2054 26.1142 21.1578 26.006 21.1578 25.893V16.1059C21.1581 15.9932 21.2058 15.8852 21.2906 15.8055C21.3754 15.7259 21.4902 15.6812 21.61 15.6812H25.7767C27.8289 15.6812 29.1767 16.7273 29.1767 18.3351C29.1767 19.4628 28.27 20.4723 27.1155 20.6501V20.7087C28.6878 20.8708 29.7455 21.896 29.7455 23.3113H29.7444ZM25.3444 17.0296H22.9555V20.2076H24.9678C26.5233 20.2076 27.3811 19.6176 27.3811 18.5632C27.3811 17.5757 26.6433 17.0296 25.3444 17.0296ZM22.9555 21.4681V24.9694H25.4333C27.0522 24.9694 27.9111 24.3574 27.9111 23.2078C27.9111 22.0571 27.0289 21.4681 25.3289 21.4681H22.9555Z" fill="white"/>
<defs>
<linearGradient id="paint0_linear_547_152" x1="25" y1="0" x2="25" y2="50" gradientUnits="userSpaceOnUse">
<stop stop-color="#173048"/>
<stop offset="1" stop-color="#173048" stop-opacity="0"/>
</linearGradient>
</defs>
</svg>
