<svg width="50" height="50" viewBox="0 0 50 50" fill="none" xmlns="http://www.w3.org/2000/svg">
<path d="M25 49.4154C10.9968 40.8703 1.36575 25.302 0.512761 7.30445C15.6355 -1.76815 34.3645 -1.76815 49.4872 7.30444C48.6343 25.302 39.0032 40.8703 25 49.4154Z" fill="url(#paint0_linear_547_112)" stroke="white"/>
<path d="M14 11L15.9084 32.204L24.5 35L33.0916 32.204L35 11H14ZM31.1229 15.2857L30.8604 17.8194L24.5385 20.4654H30.6364L29.9364 28.3194L24.5665 29.8571L19.1634 28.2929L18.8134 24.3337H21.4874L21.6624 26.3857L24.5385 27.098L27.5301 26.2734L27.7323 22.9734L18.627 22.9469L18.4301 20.4663L24.9165 17.8203H18.1956L17.878 15.2866L31.1229 15.2857Z" fill="white"/>
<defs>
<linearGradient id="paint0_linear_547_112" x1="25" y1="0" x2="25" y2="50" gradientUnits="userSpaceOnUse">
<stop stop-color="#173048"/>
<stop offset="1" stop-color="#173048" stop-opacity="0"/>
</linearGradient>
</defs>
</svg>
