<svg width="50" height="50" viewBox="0 0 50 50" fill="none" xmlns="http://www.w3.org/2000/svg">
<path d="M25 49.4154C10.9968 40.8703 1.36575 25.302 0.512761 7.30445C15.6355 -1.76815 34.3645 -1.76815 49.4872 7.30444C48.6343 25.302 39.0032 40.8703 25 49.4154Z" fill="url(#paint0_linear_547_159)" stroke="white"/>
<path fill-rule="evenodd" clip-rule="evenodd" d="M21.553 9C19.0295 9 17.0001 11.053 17.0001 13.568C17.0001 15.097 17.7508 16.455 18.9048 17.284C18.31 17.7161 17.828 18.2773 17.4972 18.9226C17.1664 19.5679 16.9962 20.2794 17.0001 21C17.0001 22.53 17.7508 23.887 18.9048 24.716C18.31 25.1481 17.828 25.7093 17.4972 26.3546C17.1664 26.9999 16.9962 27.7114 17.0001 28.432C17.0001 30.947 19.0295 33 21.553 33C24.0754 33 26.1059 30.947 26.1059 28.432V24.57C26.9034 25.2148 27.9087 25.5683 28.947 25.569C31.4705 25.568 33.4999 23.515 33.4999 21C33.4999 19.47 32.7502 18.113 31.5952 17.284C32.19 16.8519 32.672 16.2907 33.0028 15.6454C33.3336 15.0001 33.5038 14.2886 33.4999 13.568C33.4999 11.053 31.4705 9 28.947 9H21.553V9ZM18.7109 13.568C18.7109 11.977 19.9917 10.703 21.553 10.703H24.3941V16.433H21.553C19.9917 16.433 18.7109 15.158 18.7109 13.568V13.568ZM28.947 16.432H26.1059V10.702H28.947C30.5093 10.702 31.7891 11.977 31.7891 13.568C31.7891 15.158 30.5093 16.432 28.947 16.432ZM18.7119 21C18.7119 19.41 19.9927 18.135 21.554 18.135H24.3951V23.865H21.553C19.9907 23.865 18.7109 22.59 18.7109 21H18.7119ZM26.1059 21C26.1059 19.41 27.3867 18.135 28.948 18.135C30.5104 18.135 31.7901 19.409 31.7901 21C31.7901 22.59 30.5104 23.865 28.948 23.865C27.3867 23.865 26.107 22.591 26.107 21H26.1059ZM18.7119 28.432C18.7119 26.842 19.9927 25.568 21.554 25.568H24.3951V28.432C24.3951 30.023 23.1164 31.297 21.554 31.297C19.9927 31.297 18.7119 30.023 18.7119 28.432Z" fill="white" stroke="white"/>
<defs>
<linearGradient id="paint0_linear_547_159" x1="25" y1="0" x2="25" y2="50" gradientUnits="userSpaceOnUse">
<stop stop-color="#173048"/>
<stop offset="1" stop-color="#173048" stop-opacity="0"/>
</linearGradient>
</defs>
</svg>
