<svg width="50" height="50" viewBox="0 0 50 50" fill="none" xmlns="http://www.w3.org/2000/svg">
<path d="M25 49.4154C10.9968 40.8703 1.36575 25.302 0.512761 7.30445C15.6355 -1.76815 34.3645 -1.76815 49.4872 7.30444C48.6343 25.302 39.0032 40.8703 25 49.4154Z" fill="url(#paint0_linear_547_154)" stroke="white"/>
<path d="M36.5463 21.9308L26.0669 11.4528C25.9234 11.3093 25.753 11.1954 25.5655 11.1177C25.378 11.04 25.177 11 24.9741 11C24.7711 11 24.5701 11.04 24.3826 11.1177C24.1951 11.1954 24.0247 11.3093 23.8813 11.4528L21.7062 13.6279L24.4663 16.388C24.7918 16.2769 25.142 16.2595 25.4769 16.3378C25.8119 16.4162 26.118 16.5871 26.3605 16.8311C26.6029 17.0751 26.7719 17.3824 26.8481 17.7178C26.9243 18.0532 26.9046 18.4033 26.7914 18.7281L29.451 21.3892C29.8445 21.2507 30.2734 21.2503 30.6672 21.388C31.0609 21.5258 31.396 21.7936 31.6173 22.1472C31.8386 22.5009 31.9328 22.9193 31.8845 23.3337C31.8362 23.748 31.6483 24.1336 31.3516 24.4269C31.0512 24.7291 30.6553 24.9176 30.2314 24.9603C29.8075 25.0029 29.3819 24.8971 29.0274 24.6609C28.6729 24.4246 28.4113 24.0726 28.2875 23.665C28.1637 23.2573 28.1852 22.8193 28.3485 22.4258L25.8688 19.9447V26.4745C26.2458 26.661 26.5473 26.9711 26.7233 27.3531C26.8993 27.7351 26.939 28.1658 26.8359 28.5735C26.7329 28.9812 26.4931 29.3413 26.1567 29.5937C25.8204 29.8461 25.4076 29.9756 24.9873 29.9606C24.5671 29.9456 24.1646 29.787 23.8471 29.5112C23.5296 29.2355 23.3162 28.8592 23.2424 28.4452C23.1687 28.0311 23.239 27.6043 23.4418 27.2359C23.6446 26.8675 23.9675 26.5797 24.3568 26.4205V19.8307C24.1322 19.7387 23.9281 19.6031 23.7561 19.4318C23.5842 19.2605 23.4479 19.0569 23.355 18.8327C23.2621 18.6084 23.2145 18.368 23.215 18.1253C23.2155 17.8826 23.264 17.6424 23.3577 17.4186L20.6381 14.6975L13.4528 21.8828C13.3093 22.0262 13.1954 22.1966 13.1177 22.3841C13.04 22.5716 13 22.7726 13 22.9756C13 23.1785 13.04 23.3795 13.1177 23.567C13.1954 23.7545 13.3093 23.9249 13.4528 24.0684L23.9323 34.5478C24.0757 34.6914 24.2461 34.8052 24.4336 34.8829C24.6211 34.9606 24.8221 35.0006 25.0251 35.0006C25.228 35.0006 25.429 34.9606 25.6165 34.8829C25.804 34.8052 25.9744 34.6914 26.1179 34.5478L36.5478 24.1179C36.8374 23.8279 37 23.4348 37 23.0251C37 22.6153 36.8374 22.2222 36.5478 21.9323" fill="white"/>
<defs>
<linearGradient id="paint0_linear_547_154" x1="25" y1="0" x2="25" y2="50" gradientUnits="userSpaceOnUse">
<stop stop-color="#173048"/>
<stop offset="1" stop-color="#173048" stop-opacity="0"/>
</linearGradient>
</defs>
</svg>
