<svg width="50" height="50" viewBox="0 0 50 50" fill="none" xmlns="http://www.w3.org/2000/svg">
<path d="M25 49.4154C10.9968 40.8703 1.36575 25.302 0.512761 7.30445C15.6355 -1.76815 34.3645 -1.76815 49.4872 7.30444C48.6343 25.302 39.0032 40.8703 25 49.4154Z" fill="url(#paint0_linear_547_155)" stroke="white"/>
<path fill-rule="evenodd" clip-rule="evenodd" d="M25 11C18.37 11 13 16.5058 13 23.3035C13 28.7478 16.435 33.3463 21.205 34.9765C21.805 35.0842 22.03 34.715 22.03 34.3921C22.03 34.0999 22.015 33.131 22.015 32.1005C19 32.6696 18.22 31.347 17.98 30.6549C17.845 30.3012 17.26 29.2092 16.75 28.917C16.33 28.6863 15.73 28.1173 16.735 28.1019C17.68 28.0865 18.355 28.9939 18.58 29.363C19.66 31.2239 21.385 30.701 22.075 30.3781C22.18 29.5783 22.495 29.04 22.84 28.7325C20.17 28.4249 17.38 27.3637 17.38 22.6576C17.38 21.3196 17.845 20.2123 18.61 19.351C18.49 19.0434 18.07 17.7823 18.73 16.0906C18.73 16.0906 19.735 15.7676 22.03 17.3517C22.99 17.0749 24.01 16.9365 25.03 16.9365C26.05 16.9365 27.07 17.0749 28.03 17.3517C30.325 15.7522 31.33 16.0906 31.33 16.0906C31.99 17.7823 31.57 19.0434 31.45 19.351C32.215 20.2123 32.68 21.3042 32.68 22.6576C32.68 27.3791 29.875 28.4249 27.205 28.7325C27.64 29.1169 28.015 29.8552 28.015 31.0086C28.015 32.6542 28 33.9768 28 34.3921C28 34.715 28.225 35.0995 28.825 34.9765C31.2072 34.1519 33.2772 32.5821 34.7437 30.4881C36.2101 28.3942 36.9993 25.8814 37 23.3035C37 16.5058 31.63 11 25 11Z" fill="white"/>
<defs>
<linearGradient id="paint0_linear_547_155" x1="25" y1="0" x2="25" y2="50" gradientUnits="userSpaceOnUse">
<stop stop-color="#173048"/>
<stop offset="1" stop-color="#173048" stop-opacity="0"/>
</linearGradient>
</defs>
</svg>
