<svg width="50" height="50" viewBox="0 0 50 50" fill="none" xmlns="http://www.w3.org/2000/svg">
<path d="M25 49.4154C10.9968 40.8703 1.36575 25.302 0.512761 7.30445C15.6355 -1.76815 34.3645 -1.76815 49.4872 7.30444C48.6343 25.302 39.0032 40.8703 25 49.4154Z" fill="url(#paint0_linear_547_111)" stroke="white"/>
<path d="M14.2539 10.8125L16.143 32.349L24.7525 34.8125L33.3276 32.349L35.2539 10.8125H14.2539ZM31.284 15.9212L31.1466 17.2827L31.098 17.8452H21.0402L21.2749 20.5625H30.8661L30.7717 21.2635L30.1649 28.25L30.1162 28.7173L24.7639 30.2058V30.2144H24.7296L24.721 30.2173V30.2144H24.7181L19.32 28.7144L18.9937 24.5433H21.6012L21.7872 26.6548L24.7181 27.4538H24.7296L27.649 26.6577L27.9753 23.2365H24.721V23.2337H18.8563L18.2037 15.9212L18.1551 15.2202H31.3298L31.284 15.9212V15.9212Z" fill="white"/>
<defs>
<linearGradient id="paint0_linear_547_111" x1="25" y1="0" x2="25" y2="50" gradientUnits="userSpaceOnUse">
<stop stop-color="#173048"/>
<stop offset="1" stop-color="#173048" stop-opacity="0"/>
</linearGradient>
</defs>
</svg>
