<svg width="50" height="50" viewBox="0 0 50 50" fill="none" xmlns="http://www.w3.org/2000/svg">
<path d="M25 49.4154C10.9968 40.8703 1.36575 25.302 0.512761 7.30445C15.6355 -1.76815 34.3645 -1.76815 49.4872 7.30444C48.6343 25.302 39.0032 40.8703 25 49.4154Z" fill="url(#paint0_linear_547_153)" stroke="white"/>
<path d="M37 10L34 31.0909L25 34L16 31.0909L13 10H37Z" fill="white"/>
<path d="M18.25 15.8182H22.75V27.4545L19.75 26" fill="white"/>
<path d="M31.75 15.8182H28C27.8011 15.8182 27.6103 15.8948 27.4697 16.0312C27.329 16.1676 27.25 16.3526 27.25 16.5455V20.9091C27.25 21.102 27.329 21.287 27.4697 21.4234C27.6103 21.5597 27.8011 21.6364 28 21.6364H30.1345C30.2419 21.6364 30.348 21.6587 30.4456 21.7019C30.5433 21.7451 30.6303 21.8082 30.7007 21.8868C30.7711 21.9654 30.8232 22.0577 30.8536 22.1575C30.8841 22.2574 30.892 22.3624 30.877 22.4655L30.25 26.7273L27.25 27.4545" fill="white"/>
<path d="M37 10L37.99 10.1408L38.1523 9H37V10ZM34 31.0909L34.3076 32.0424L34.9021 31.8503L34.99 31.2317L34 31.0909ZM25 34L24.6924 34.9515L25 35.0509L25.3076 34.9515L25 34ZM16 31.0909L15.01 31.2317L15.0979 31.8503L15.6924 32.0424L16 31.0909ZM13 10V9H11.8477L12.01 10.1408L13 10ZM18.25 14.8182H17.25V16.8182H18.25V14.8182ZM22.75 15.8182H23.75C23.75 15.2659 23.3023 14.8182 22.75 14.8182V15.8182ZM22.75 27.4545L22.3137 28.3544C22.6236 28.5046 22.989 28.4848 23.2809 28.302C23.5728 28.1191 23.75 27.799 23.75 27.4545H22.75ZM20.1863 25.1002L19.2865 24.6639L18.4139 26.4635L19.3137 26.8998L20.1863 25.1002ZM31.75 16.8182H32.75V14.8182H31.75V16.8182ZM30.1345 21.6364L30.1346 20.6364H30.1345V21.6364ZM30.877 22.4655L31.8664 22.611L31.8665 22.6097L30.877 22.4655ZM30.25 26.7273L30.4856 27.6991C30.8818 27.6031 31.18 27.2762 31.2394 26.8728L30.25 26.7273ZM27.0144 26.4827L26.0426 26.7183L26.5138 28.662L27.4856 28.4264L27.0144 26.4827ZM36.01 9.85918L33.01 30.9501L34.99 31.2317L37.99 10.1408L36.01 9.85918ZM33.6924 30.1394L24.6924 33.0485L25.3076 34.9515L34.3076 32.0424L33.6924 30.1394ZM25.3076 33.0485L16.3076 30.1394L15.6924 32.0424L24.6924 34.9515L25.3076 33.0485ZM16.99 30.9501L13.99 9.85918L12.01 10.1408L15.01 31.2317L16.99 30.9501ZM13 11H37V9H13V11ZM18.25 16.8182H22.75V14.8182H18.25V16.8182ZM21.75 15.8182V27.4545H23.75V15.8182H21.75ZM23.1863 26.5547L20.1863 25.1002L19.3137 26.8998L22.3137 28.3544L23.1863 26.5547ZM31.75 14.8182H28V16.8182H31.75V14.8182ZM28 14.8182C27.5456 14.8182 27.1039 14.9929 26.7735 15.3133L28.1658 16.7491C28.1167 16.7967 28.0565 16.8182 28 16.8182V14.8182ZM26.7735 15.3133C26.4421 15.6347 26.25 16.0773 26.25 16.5455H28.25C28.25 16.6279 28.2159 16.7005 28.1658 16.7491L26.7735 15.3133ZM26.25 16.5455V20.9091H28.25V16.5455H26.25ZM26.25 20.9091C26.25 21.3773 26.4421 21.8199 26.7735 22.1413L28.1658 20.7055C28.2159 20.7541 28.25 20.8267 28.25 20.9091H26.25ZM26.7735 22.1413C27.1039 22.4616 27.5456 22.6364 28 22.6364V20.6364C28.0565 20.6364 28.1167 20.6579 28.1658 20.7055L26.7735 22.1413ZM28 22.6364H30.1345V20.6364H28V22.6364ZM30.1344 22.6364C30.1032 22.6364 30.0715 22.6299 30.0411 22.6165L30.8501 20.7874C30.6244 20.6876 30.3805 20.6364 30.1346 20.6364L30.1344 22.6364ZM30.0411 22.6165C30.0107 22.603 29.9812 22.5823 29.9557 22.5539L31.4456 21.2196C31.2794 21.034 31.0759 20.8873 30.8501 20.7874L30.0411 22.6165ZM29.9557 22.5539C29.9302 22.5254 29.9095 22.4899 29.8971 22.449L31.8102 21.8661C31.7369 21.6255 31.6119 21.4053 31.4456 21.2196L29.9557 22.5539ZM29.8971 22.449C29.8846 22.4081 29.8812 22.3643 29.8875 22.3212L31.8665 22.6097C31.9029 22.3605 31.8835 22.1067 31.8102 21.8661L29.8971 22.449ZM29.8877 22.3199L29.2607 26.5817L31.2394 26.8728L31.8664 22.611L29.8877 22.3199ZM30.0144 25.7554L27.0144 26.4827L27.4856 28.4264L30.4856 27.6991L30.0144 25.7554Z" fill="url(#paint1_linear_547_153)"/>
<defs>
<linearGradient id="paint0_linear_547_153" x1="25" y1="0" x2="25" y2="50" gradientUnits="userSpaceOnUse">
<stop stop-color="#173048"/>
<stop offset="1" stop-color="#173048" stop-opacity="0"/>
</linearGradient>
<linearGradient id="paint1_linear_547_153" x1="25" y1="10" x2="25" y2="34" gradientUnits="userSpaceOnUse">
<stop stop-color="#173048"/>
<stop offset="1" stop-color="#173048" stop-opacity="0.55"/>
</linearGradient>
</defs>
</svg>
