<svg width="50" height="50" viewBox="0 0 50 50" fill="none" xmlns="http://www.w3.org/2000/svg">
<path d="M25 49.4154C10.9968 40.8703 1.36575 25.302 0.512761 7.30445C15.6355 -1.76815 34.3645 -1.76815 49.4872 7.30444C48.6343 25.302 39.0032 40.8703 25 49.4154Z" fill="url(#paint0_linear_547_161)" stroke="white"/>
<path d="M25 35C24.6269 35 24.28 34.9108 23.956 34.7566L20.6516 33.0154C20.1553 32.773 20.404 32.6848 20.5535 32.6408C21.2233 32.4424 21.3476 32.3983 22.0436 32.0447C22.1178 32.0006 22.2182 32.0226 22.2924 32.0667L24.8265 33.4121C24.9247 33.4562 25.0502 33.4562 25.1244 33.4121L35.0375 28.319C35.1356 28.2749 35.1858 28.1867 35.1858 28.0766V17.9123C35.1858 17.8021 35.1367 17.7139 35.0375 17.6698L25.1244 12.5997C25.0251 12.5556 24.9007 12.5556 24.8265 12.5997L14.9135 17.6698C14.8142 17.7139 14.764 17.8241 14.764 17.9123V28.0766C14.764 28.1647 14.8142 28.2749 14.9135 28.319L17.6211 29.7085C19.0873 30.3697 20.0058 29.5983 20.0058 28.8269V18.7949C20.0058 18.6626 20.1302 18.5304 20.3047 18.5304H21.5713C21.7207 18.5304 21.8691 18.6406 21.8691 18.7949V28.8259C21.8691 30.568 20.8011 31.5819 18.9378 31.5819C18.3662 31.5819 17.9189 31.5819 16.6524 31.0309L14.044 29.7085C13.7297 29.5498 13.4672 29.3169 13.2837 29.0339C13.1002 28.7509 13.0022 28.428 13 28.0986V17.9343C13 17.2731 13.3971 16.656 14.044 16.3254L23.9571 11.2313C24.2798 11.0793 24.6373 11 25 11C25.3627 11 25.7202 11.0793 26.0429 11.2313L35.9571 16.3244C36.6029 16.655 37 17.2721 37 17.9333V28.0976C37 28.7588 36.6029 29.3759 35.9571 29.7075L26.0429 34.7996C25.7137 34.9307 25.3588 34.9982 25 34.998V35ZM28.0556 28.0104C23.7084 28.0104 22.8138 26.2473 22.8138 24.7476C22.8138 24.6153 22.9382 24.4831 23.1116 24.4831H24.4033C24.5527 24.4831 24.676 24.5712 24.676 24.7035C24.8756 25.8716 25.4473 26.4446 28.0807 26.4446C30.1676 26.4446 31.0622 26.0259 31.0622 25.0341C31.0622 24.461 30.8135 24.0423 27.5593 23.7558C24.8505 23.5123 23.1618 22.9844 23.1618 21.0659C23.1618 19.2797 24.8505 18.2208 27.6836 18.2208C30.8636 18.2208 32.4291 19.1916 32.6276 21.3084C32.6254 21.38 32.5991 21.4493 32.5524 21.5067C32.5033 21.5508 32.4291 21.5949 32.3538 21.5949H31.0622C30.9994 21.5935 30.9389 21.5734 30.8897 21.5376C30.8405 21.5018 30.8053 21.4523 30.7895 21.3965C30.4905 20.1844 29.7204 19.7866 27.6836 19.7866C25.3971 19.7866 25.1244 20.4919 25.1244 21.0209C25.1244 21.661 25.4473 21.8594 28.528 22.212C31.5836 22.5646 33.0247 23.0716 33.0247 24.967C32.9996 26.9085 31.2116 28.0104 28.0556 28.0104V28.0104Z" fill="white" stroke="white"/>
<defs>
<linearGradient id="paint0_linear_547_161" x1="25" y1="0" x2="25" y2="50" gradientUnits="userSpaceOnUse">
<stop stop-color="#173048"/>
<stop offset="1" stop-color="#173048" stop-opacity="0"/>
</linearGradient>
</defs>
</svg>
