<svg width="50" height="50" viewBox="0 0 50 50" fill="none" xmlns="http://www.w3.org/2000/svg">
<path d="M25 49.4154C10.9968 40.8703 1.36575 25.302 0.512761 7.30445C15.6355 -1.76815 34.3645 -1.76815 49.4872 7.30444C48.6343 25.302 39.0032 40.8703 25 49.4154Z" fill="url(#paint0_linear_547_158)" stroke="white"/>
<path d="M25.2414 20.5948C23.9396 20.5948 22.8794 21.6746 22.8794 23.0006C22.8794 24.3265 23.9396 25.4064 25.2414 25.4064C26.5432 25.4064 27.6033 24.3265 27.6033 23.0006C27.6033 21.6746 26.5432 20.5948 25.2414 20.5948ZM18.629 27.7818L18.1076 27.6503C14.2279 26.6489 12 24.9545 12 22.9964C12 21.0382 14.2287 19.3438 18.1076 18.3424L18.629 18.2109L18.7754 18.7378C19.169 20.1177 19.6722 21.4627 20.28 22.7595L20.3917 22.9964L20.28 23.2374C19.6709 24.5337 19.1677 25.8788 18.7754 27.2592L18.629 27.7818ZM17.8668 19.5714C14.9181 20.4144 13.1081 21.7092 13.1081 22.9964C13.1081 24.2835 14.9189 25.5733 17.8668 26.4213C18.2281 25.2518 18.6644 24.1077 19.1727 22.9964C18.6637 21.8853 18.2274 20.7412 17.8668 19.5714V19.5714ZM31.8538 27.7818L31.7073 27.255C31.3144 25.8762 30.8112 24.5325 30.2028 23.2374L30.091 22.9964L30.2028 22.7553C30.8118 21.459 31.315 20.1139 31.7073 18.7335L31.8538 18.2109L32.3752 18.3424C36.2549 19.3438 38.4828 21.0382 38.4828 22.9964C38.4828 24.9545 36.2541 26.6489 32.3752 27.6503L31.8538 27.7818ZM31.3101 22.9964C31.8201 24.107 32.2564 25.2512 32.616 26.4213C35.5688 25.5741 37.3746 24.2835 37.3746 22.9964C37.3746 21.7092 35.5639 20.4195 32.616 19.5714C32.2538 20.7406 31.8176 21.8847 31.3101 22.9964ZM17.8577 19.5672L17.7112 19.0404C16.6204 15.124 16.9523 12.3145 18.6207 11.335C20.2585 10.3731 22.8836 11.5103 25.6378 14.3907L26.0127 14.7818L25.6378 15.1729C24.6597 16.2094 23.766 17.3252 22.9655 18.5093L22.8149 18.7243L22.5559 18.7462C21.1477 18.8594 19.7509 19.0886 18.379 19.4315L17.8577 19.5672ZM19.9523 12.1172C19.6552 12.1172 19.392 12.1788 19.1719 12.3103C18.077 12.956 17.8833 15.1948 18.6372 18.2151C19.8136 17.9471 21.006 17.7579 22.2066 17.6487C22.8979 16.6459 23.6537 15.691 24.4692 14.7902C22.7495 13.0824 21.12 12.1164 19.9523 12.1164V12.1172ZM30.5346 34.9992C30.5305 34.9992 30.5305 34.9992 30.5346 34.9992C28.9614 34.9992 26.9396 33.7963 24.845 31.6012L24.4701 31.2101L24.845 30.819C25.823 29.7824 26.7167 28.6666 27.5172 27.4826L27.6637 27.2676L27.9228 27.2415C29.3327 27.1321 30.7312 26.9028 32.1037 26.5561L32.6251 26.4246L32.7716 26.9515C33.8623 30.8678 33.5305 33.6732 31.8621 34.6519C31.4587 34.888 30.9998 35.0078 30.5346 34.9983V34.9992ZM26.0127 31.2017C27.7324 32.9095 29.3619 33.8755 30.5297 33.8755H30.5338C30.8268 33.8755 31.0899 33.8098 31.3101 33.6825C32.405 33.0368 32.6036 30.7979 31.8447 27.7776C30.6685 28.0459 29.4761 28.2337 28.2753 28.3398C27.5841 29.344 26.8282 30.3003 26.0127 31.2025V31.2017ZM32.6251 19.5672L32.1037 19.4315C30.7303 19.0897 29.3321 18.8606 27.9228 18.7462L27.6637 18.7243L27.5172 18.5093C26.7167 17.3252 25.823 16.2094 24.845 15.1729L24.4701 14.7818L24.845 14.3907C27.5992 11.5103 30.2243 10.3731 31.8621 11.335C33.5305 12.3136 33.8623 15.124 32.7716 19.0404L32.6251 19.5672ZM28.2761 17.6487C29.4768 17.7576 30.6692 17.9468 31.8455 18.2151C32.6044 15.1948 32.4058 12.9551 31.3109 12.3103C30.2201 11.6696 28.1686 12.6525 26.0135 14.7911C26.8268 15.6937 27.5826 16.6485 28.2761 17.6495V17.6487ZM19.9523 34.9992C19.4863 35.0076 19.0254 34.8896 18.6207 34.6527C16.9523 33.674 16.6204 30.8678 17.7112 26.9523L17.8577 26.4255L18.379 26.557C19.6552 26.8866 21.0604 27.1142 22.5559 27.2423L22.8149 27.2684L22.9614 27.4834C23.7619 28.6675 24.6556 29.7833 25.6337 30.8198L26.0086 31.2109L25.6337 31.6021C23.5432 33.7971 21.5214 35 19.9523 35V34.9992ZM18.6381 27.7776C17.8792 30.7979 18.0778 33.0376 19.1727 33.6825C20.2634 34.3147 22.3109 33.3402 24.4701 31.2017C23.6545 30.2995 22.8987 29.3431 22.2074 28.339C21.0066 28.2332 19.8142 28.0454 18.6381 27.7767V27.7776ZM25.2414 28.484C24.3319 28.484 23.4008 28.4444 22.4657 28.3651L22.2066 28.3432L22.056 28.124C21.5278 27.3509 21.0316 26.5556 20.5688 25.7402C20.1051 24.9247 19.6752 24.0897 19.2803 23.2374L19.1686 22.9964L19.2803 22.7553C20.0715 21.0511 20.9999 19.4167 22.056 17.8687L22.2066 17.6495L22.4657 17.6276C24.3129 17.4691 26.1699 17.4691 28.0171 17.6276L28.2761 17.6495L28.4268 17.8687C29.4842 19.4158 30.4127 21.0504 31.2025 22.7553L31.3142 22.9964L31.2025 23.2374C30.4143 24.9432 29.4857 26.5779 28.4268 28.124L28.2761 28.3432L28.0171 28.3651C27.0939 28.4438 26.1678 28.4835 25.2414 28.484V28.484ZM22.819 27.2634C24.4486 27.3907 26.0342 27.3907 27.6679 27.2634C28.579 25.9045 29.3887 24.4778 30.0902 22.9955C29.3916 21.5107 28.5804 20.0838 27.6637 18.7276C26.0512 18.6004 24.4315 18.6004 22.819 18.7276C21.9018 20.0834 21.0904 21.5104 20.3926 22.9955C21.0943 24.4786 21.9054 25.9053 22.819 27.2634V27.2634Z" fill="white" stroke="white"/>
<defs>
<linearGradient id="paint0_linear_547_158" x1="25" y1="0" x2="25" y2="50" gradientUnits="userSpaceOnUse">
<stop stop-color="#173048"/>
<stop offset="1" stop-color="#173048" stop-opacity="0"/>
</linearGradient>
</defs>
</svg>
