<svg width="50" height="50" viewBox="0 0 50 50" fill="none" xmlns="http://www.w3.org/2000/svg">
<path d="M25 49.4154C10.9968 40.8703 1.36575 25.302 0.512761 7.30445C15.6355 -1.76815 34.3645 -1.76815 49.4872 7.30444C48.6343 25.302 39.0032 40.8703 25 49.4154Z" fill="url(#paint0_linear_547_151)" stroke="white"/>
<path d="M25.2045 27.9361C25.1914 27.9641 25.1783 27.9865 25.2045 27.9361V27.9361ZM36.1024 23.8761C35.2223 23.8761 34.3544 24.0907 33.5652 24.5061C33.3071 23.9507 33.0402 23.4654 32.9965 23.1014C32.944 22.6767 32.8871 22.4247 32.9484 21.9207C33.0096 21.4167 33.2852 20.7027 33.2808 20.6514C33.2765 20.6001 33.2196 20.3434 32.6553 20.3387C32.0909 20.3341 31.6054 20.4554 31.5485 20.6141C31.4486 20.904 31.3711 21.2021 31.3166 21.5054C31.216 22.0514 30.1889 24.0021 29.6071 25.0194C29.4146 24.6227 29.2527 24.2727 29.2177 23.9927C29.1652 23.5681 29.1084 23.3161 29.1696 22.8121C29.2309 22.3081 29.5065 21.5941 29.5021 21.5427C29.4977 21.4914 29.4408 21.2347 28.8774 21.2301C28.3139 21.2254 27.8275 21.3467 27.7706 21.5054C27.7138 21.6641 27.6525 22.0374 27.5388 22.3967C27.425 22.7561 26.0558 26.0041 25.698 26.8487C25.5142 27.2781 25.3567 27.6234 25.243 27.8567C25.2255 27.8941 25.2124 27.9174 25.2036 27.9361C25.2167 27.9127 25.2255 27.8894 25.2255 27.8987C25.1293 28.0994 25.0724 28.2114 25.0724 28.2114V28.2161C24.998 28.3654 24.9149 28.5007 24.8755 28.5007C24.8493 28.5007 24.7924 28.1087 24.8887 27.5721C25.0943 26.4427 25.5798 24.6881 25.5755 24.6274C25.5711 24.5947 25.6673 24.2914 25.2561 24.1281C24.858 23.9741 24.7137 24.2307 24.6787 24.2307C24.6437 24.2307 24.6174 24.3241 24.6174 24.3241C24.6174 24.3241 25.0593 22.3454 23.7688 22.3454C22.9638 22.3454 21.844 23.2881 21.2936 24.1421C20.948 24.3427 20.2 24.7767 19.4126 25.2387L18.507 25.7707C18.4852 25.7474 18.4677 25.7241 18.4458 25.7007C16.8797 23.9181 13.989 22.6581 14.1115 20.2641C14.1552 19.3914 14.4396 17.1001 19.6707 14.3187C23.9577 12.0414 27.3848 12.6667 27.9754 14.0574C28.824 16.0407 26.1424 19.7321 21.6908 20.2641C19.9935 20.4647 19.102 19.7647 18.8789 19.5034C18.647 19.2281 18.612 19.2141 18.5245 19.2654C18.3802 19.3494 18.472 19.5921 18.5245 19.7367C18.6558 20.1054 19.2026 20.7587 20.1344 21.0854C20.9524 21.3701 22.942 21.5287 25.3471 20.5347C28.0497 19.4241 30.1539 16.3301 29.5362 13.7401C28.908 11.1081 24.8169 10.2447 20.9489 11.7101C18.6435 12.5827 16.1509 13.9547 14.3582 15.7421C12.2278 17.8701 11.8874 19.7227 12.0274 20.4974C12.5261 23.2461 16.0774 25.0381 17.4983 26.3634L17.3014 26.4801C16.5883 26.8581 13.8814 28.3701 13.2033 29.9661C12.4378 31.7767 13.3302 33.0741 13.9155 33.2514C15.7441 33.7927 17.6155 32.8174 18.6216 31.2167C19.6278 29.6161 19.5053 27.5254 19.0416 26.5734C19.0372 26.5594 19.0285 26.5501 19.0241 26.5361C19.549 26.2044 20.0784 25.8808 20.6121 25.5654C20.4371 26.0694 20.3102 26.6761 20.2446 27.5534C20.1659 28.5801 20.564 29.9101 21.0802 30.4327C21.3076 30.6614 21.5824 30.6661 21.7538 30.6661C22.3575 30.6661 22.6288 30.1341 22.9306 29.4994C23.3024 28.7247 23.6305 27.8241 23.6305 27.8241C23.6305 27.8241 23.2193 30.2601 24.3436 30.2601C24.7548 30.2601 25.166 29.6954 25.3497 29.4061V29.4107C25.3497 29.4107 25.3585 29.3921 25.3804 29.3547C25.4241 29.2847 25.446 29.2427 25.446 29.2427V29.2287C25.6122 28.9254 25.9753 28.2301 26.5221 27.0821C27.2308 25.5981 27.908 23.7454 27.908 23.7454C27.9736 24.1523 28.0646 24.5546 28.1792 24.9494C28.3017 25.3927 28.5598 25.8781 28.7654 26.3494C28.5992 26.5921 28.4986 26.7321 28.4986 26.7321C28.4986 26.7358 28.5003 26.7386 28.5029 26.7414C28.3717 26.9281 28.223 27.1287 28.0698 27.3247C27.5108 28.0341 26.845 28.8461 26.7575 29.0794C26.6525 29.3547 26.6787 29.5601 26.88 29.7187C27.0287 29.8401 27.2912 29.8587 27.5668 29.8354C28.0698 29.7981 28.4242 29.6674 28.5948 29.5834C28.9095 29.4631 29.2069 29.2966 29.4785 29.0887C30.0253 28.6594 30.3577 28.0434 30.3271 27.2314C30.3096 26.7834 30.174 26.3354 30.0078 25.9154C30.0559 25.8407 30.1084 25.7614 30.1565 25.6821C30.7258 24.7759 31.2387 23.8309 31.692 22.8531C31.7576 23.2601 31.8477 23.6623 31.9632 24.0571C32.0682 24.4351 32.2738 24.8505 32.4619 25.2565C31.6482 25.9611 31.1452 26.7778 30.9711 27.3145C30.6473 28.3085 30.9011 28.7565 31.3779 28.8591C31.5922 28.9058 31.8985 28.7985 32.1259 28.6958C32.4637 28.5754 32.7821 28.4009 33.07 28.1778C33.6168 27.7485 34.1461 27.1465 34.1102 26.3298C34.0971 25.9611 34.0009 25.5925 33.874 25.2378C34.5608 24.9298 35.4532 24.7618 36.5906 24.9018C39.0264 25.2051 39.5032 26.8291 39.4114 27.5058C39.3195 28.1825 38.8077 28.5605 38.6371 28.6725C38.4664 28.7845 38.414 28.8265 38.4271 28.9105C38.4489 29.0318 38.5277 29.0271 38.6721 28.9991C38.8733 28.9618 39.9494 28.4485 39.9975 27.1931C40.0675 25.6065 38.6371 23.8611 36.1042 23.8751L36.1024 23.8761ZM17.3277 30.6287C16.5227 31.5667 15.395 31.9214 14.9094 31.6227C14.3888 31.2998 14.5944 29.9194 15.5866 28.9198C16.1903 28.3131 16.9689 27.7531 17.4851 27.4078C17.6032 27.3331 17.7739 27.2211 17.9838 27.0858C18.0009 27.0741 18.0184 27.0632 18.0363 27.0531C18.0757 27.0251 18.1194 27.0018 18.1632 26.9738C18.5254 28.3925 18.1763 29.6431 17.3277 30.6278V30.6287ZM23.2053 26.3634C22.9253 27.0961 22.3357 28.9627 21.9761 28.8647C21.6698 28.7807 21.4817 27.3574 21.9148 25.9574C22.1336 25.2527 22.5973 24.4127 22.8729 24.0861C23.3147 23.5587 23.8003 23.3907 23.914 23.6007C24.0671 23.8761 23.3803 25.9061 23.2053 26.3634ZM28.0611 28.8367C27.943 28.9021 27.8336 28.9441 27.7811 28.9114C27.7418 28.8881 27.8292 28.7994 27.8292 28.7994C27.8292 28.7994 28.4373 28.1041 28.6779 27.7867C28.8179 27.6001 28.9798 27.3807 29.1547 27.1381C29.1547 27.1614 29.1591 27.1847 29.1591 27.2127C29.1539 28.0481 28.4014 28.6127 28.0602 28.8367H28.0611ZM31.8057 27.9267C31.7182 27.8614 31.7314 27.6421 32.0245 26.9607C32.1382 26.6947 32.4007 26.2467 32.8556 25.8174C32.9072 25.9798 32.9352 26.1497 32.9387 26.3214C32.9344 27.3714 32.2301 27.7634 31.8057 27.9267V27.9267Z" fill="white" stroke="white" stroke-width="0.7"/>
<defs>
<linearGradient id="paint0_linear_547_151" x1="25" y1="0" x2="25" y2="50" gradientUnits="userSpaceOnUse">
<stop stop-color="#173048"/>
<stop offset="1" stop-color="#173048" stop-opacity="0"/>
</linearGradient>
</defs>
</svg>
