<svg width="50" height="50" viewBox="0 0 50 50" fill="none" xmlns="http://www.w3.org/2000/svg">
<path d="M25 49.4154C10.9968 40.8703 1.36575 25.302 0.512761 7.30445C15.6355 -1.76815 34.3645 -1.76815 49.4872 7.30444C48.6343 25.302 39.0032 40.8703 25 49.4154Z" fill="url(#paint0_linear_547_160)" stroke="white"/>
<path d="M32.2 33H17.8C16.527 33 15.3061 32.4943 14.4059 31.5941C13.5057 30.6939 13 29.473 13 28.2V13.8C13 12.527 13.5057 11.3061 14.4059 10.4059C15.3061 9.50571 16.527 9 17.8 9H32.2C33.473 9 34.6939 9.50571 35.5941 10.4059C36.4943 11.3061 37 12.527 37 13.8V28.2C37 29.473 36.4943 30.6939 35.5941 31.5941C34.6939 32.4943 33.473 33 32.2 33ZM17.8 11.4C17.1635 11.4 16.553 11.6529 16.1029 12.1029C15.6529 12.553 15.4 13.1635 15.4 13.8V28.2C15.4 28.8365 15.6529 29.447 16.1029 29.8971C16.553 30.3471 17.1635 30.6 17.8 30.6H32.2C32.8365 30.6 33.447 30.3471 33.8971 29.8971C34.3471 29.447 34.6 28.8365 34.6 28.2V13.8C34.6 13.1635 34.3471 12.553 33.8971 12.1029C33.447 11.6529 32.8365 11.4 32.2 11.4H17.8ZM29.5144 26.7312C28.9955 26.7521 28.4777 26.6671 27.9927 26.4815C27.5077 26.2958 27.0655 26.0133 26.6932 25.6512C25.9137 24.7625 25.5138 23.6035 25.5796 22.4232C25.5555 21.2761 25.9647 20.162 26.7256 19.3032C27.1234 18.8826 27.6056 18.5509 28.1406 18.3299C28.6757 18.1088 29.2514 18.0033 29.83 18.0204H30.1096V15.6204C30.1096 15.4332 30.262 15.2808 30.4492 15.2796H32.0296C32.1173 15.2763 32.2031 15.3063 32.2696 15.3636C32.3021 15.3943 32.3276 15.4316 32.3446 15.473C32.3616 15.5144 32.3695 15.5589 32.368 15.6036V24.8184C32.362 25.1364 32.3788 25.4544 32.416 25.77V25.8C32.4178 25.8763 32.3942 25.951 32.3488 26.0124C32.3096 26.0606 32.26 26.0991 32.2036 26.1252C31.3708 26.5227 30.46 26.7301 29.5372 26.7324L29.5144 26.7312V26.7312ZM28.4152 20.592L28.4092 20.5992C28.0291 21.0994 27.8379 21.7178 27.8692 22.3452C27.8199 22.999 28.0087 23.6485 28.4008 24.174C28.7212 24.5268 29.1832 24.7188 29.6596 24.6948C29.8108 24.6972 29.962 24.6816 30.1096 24.6492V20.0304C29.9976 20.0064 29.8833 19.9948 29.7688 19.9956C29.5128 19.9887 29.2584 20.039 29.0243 20.1428C28.7901 20.2466 28.5821 20.4013 28.4152 20.5956V20.592V20.592ZM25.27 26.592H23.5288C23.4393 26.5979 23.3502 26.5755 23.274 26.5282C23.1978 26.4808 23.1384 26.4108 23.104 26.328L22.852 25.8L22.846 25.7868L22.6 25.296L22.5232 25.1364C22.1404 24.3468 21.7456 23.5332 21.3496 22.6956C20.799 23.9155 20.2321 25.128 19.6492 26.3328V26.3448L19.6432 26.3556C19.603 26.4229 19.547 26.4793 19.48 26.52C19.4119 26.5607 19.3337 26.5815 19.2544 26.58H17.6092C17.5404 26.5834 17.4724 26.5642 17.4154 26.5255C17.3585 26.4867 17.3157 26.4305 17.2936 26.3652C17.2791 26.3155 17.2763 26.2632 17.2852 26.2122C17.2942 26.1612 17.3147 26.113 17.3452 26.0712L20.02 20.958L17.4328 15.7812C17.398 15.7308 17.3782 15.6716 17.3756 15.6105C17.3731 15.5493 17.3879 15.4887 17.4184 15.4356C17.4477 15.3875 17.489 15.3477 17.5382 15.3201C17.5874 15.2926 17.6428 15.2782 17.6992 15.2784H19.42C19.5036 15.2739 19.5868 15.2931 19.66 15.3336C19.7344 15.3792 19.792 15.4476 19.8232 15.5292C20.4664 16.8792 21.0088 18.0492 21.4828 19.0872C22.072 17.7672 22.6984 16.4256 23.1184 15.5364L23.1244 15.5232L23.1316 15.5112V15.498C23.1617 15.4467 23.1993 15.4002 23.2432 15.36C23.3175 15.298 23.4117 15.2652 23.5084 15.2676H25.12C25.1816 15.266 25.2424 15.2822 25.295 15.3143C25.3476 15.3465 25.3898 15.3932 25.4164 15.4488C25.4376 15.4997 25.4462 15.555 25.4413 15.61C25.4365 15.6649 25.4185 15.7179 25.3888 15.7644L22.8004 20.7888L25.5388 26.0688C25.5676 26.1147 25.5857 26.1664 25.5917 26.2202C25.5977 26.274 25.5915 26.3285 25.5736 26.3796C25.551 26.4417 25.5096 26.4953 25.4552 26.5329C25.4009 26.5706 25.3361 26.5904 25.27 26.5896V26.592V26.592Z" fill="white"/>
<defs>
<linearGradient id="paint0_linear_547_160" x1="25" y1="0" x2="25" y2="50" gradientUnits="userSpaceOnUse">
<stop stop-color="#173048"/>
<stop offset="1" stop-color="#173048" stop-opacity="0"/>
</linearGradient>
</defs>
</svg>
